HIERARCHY
ROOT Hips
{
     OFFSET 19.46130 96.90910 14.41610
     CHANNELS 6 Xposition Yposition Zposition Zrotation Xrotation Yrotation
     JOINT Spine
     {
          OFFSET -0.00000 11.89050 -0.00000
          CHANNELS 3 Zrotation Xrotation Yrotation
          JOINT Spine1
          {
               OFFSET 0.00000 25.65740 0.12766
               CHANNELS 3 Zrotation Xrotation Yrotation
               JOINT HEad
               {
                    OFFSET 0.00000 8.73416 0.01134
                    CHANNELS 3 Zrotation Xrotation Yrotation
                    End Site
                    {
                         OFFSET -0.29000 12.77420 2.51395
                    }
               }
               JOINT LeftShoulder1
               {
                    OFFSET 8.99000 -0.36225 -0.22000
                    CHANNELS 3 Zrotation Xrotation Yrotation
                    JOINT LeftArm
                    {
                         OFFSET 10.28270 -0.00338 0.32212
                         CHANNELS 3 Zrotation Xrotation Yrotation
                         JOINT LeftForeArm
                         {
                              OFFSET 32.76690 0.09914 -1.42434
                              CHANNELS 3 Zrotation Xrotation Yrotation
                              JOINT LeftHand
                              {
                                   OFFSET 27.56430 0.08536 1.02216
                                   CHANNELS 3 Zrotation Xrotation Yrotation
                                   End Site
                                   {
                                        OFFSET 16.74430 -0.60000 1.50291
                                   }
                              }
                         }
                    }
               }
               JOINT RightShoulder
               {
                    OFFSET -8.99000 -0.36225 -0.22000
                    CHANNELS 3 Zrotation Xrotation Yrotation
                    JOINT RightArm
                    {
                         OFFSET -10.28270 -0.00338 0.32212
                         CHANNELS 3 Zrotation Xrotation Yrotation
                         JOINT RightForeArm
                         {
                              OFFSET -32.89710 0.09914 -1.42434
                              CHANNELS 3 Zrotation Xrotation Yrotation
                              JOINT RightHand
                              {
                                   OFFSET -27.49210 0.08536 1.02216
                                   CHANNELS 3 Zrotation Xrotation Yrotation
                                   End Site
                                   {
                                        OFFSET -16.63120 -0.60000 1.50291
                                   }
                              }
                         }
                    }
               }
          }
     }
     JOINT LeftUpLeg
     {
          OFFSET 8.94580 -8.66707 0.10165
          CHANNELS 3 Zrotation Xrotation Yrotation
          JOINT LeftLeg
          {
               OFFSET -0.00000 -44.42270 1.37270
               CHANNELS 3 Zrotation Xrotation Yrotation
               JOINT LeftFoot
               {
                    OFFSET -0.25355 -42.09240 -1.46059
                    CHANNELS 3 Zrotation Xrotation Yrotation
                    JOINT LeftToes
                    {
                         OFFSET -0.04000 -4.41509 8.49910
                         CHANNELS 3 Zrotation Xrotation Yrotation
                         End Site
                         {
                              OFFSET 0.08000 -0.04745 9.77979
                         }
                    }
               }
          }
     }
     JOINT RightUpLeg
     {
          OFFSET -8.94580 -8.66707 0.10165
          CHANNELS 3 Zrotation Xrotation Yrotation
          JOINT RightLeg
          {
               OFFSET -0.00000 -44.42270 1.37270
               CHANNELS 3 Zrotation Xrotation Yrotation
               JOINT RightFoot
               {
                    OFFSET 0.25355 -42.09240 -1.46059
                    CHANNELS 3 Zrotation Xrotation Yrotation
                    JOINT RightToes
                    {
                         OFFSET 0.04000 -4.41509 8.49910
                         CHANNELS 3 Zrotation Xrotation Yrotation
                         End Site
                         {
                              OFFSET -0.08000 -0.13745 9.77979
                         }
                    }
               }
          }
     }
}
MOTION
Frames: 12
Frame Time: 0.01667
19.46130 96.90910 14.41610 -4.25135 -4.39965 -48.18940 2.77145 4.54728 3.17643 4.10042 9.29843 6.18937 -5.38619 -1.19608 30.26630 -0.00000 -0.00000 0.00000 -107.69100 -43.26420 -110.25100 -19.03210 31.52780 -77.19290 5.55594 9.67997 -0.87718 4.37491 0.50563 2.68094 71.81480 -12.09740 98.69070 11.02380 20.59050 84.39510 -5.55712 9.68432 0.87760 9.35423 -14.15600 0.95118 6.19949 18.41970 -21.47140 -14.09280 -3.46419 0.52544 0.58756 -8.27274 -2.31973 -8.46702 4.19555 1.72234 -10.07820 22.72520 25.95660 6.88792 -29.93230 1.08149 6.79442 7.05452 -2.64909 
19.80650 97.17630 15.05080 -4.00265 -3.94335 -48.67520 2.68304 4.48027 3.35875 4.21366 9.15110 6.52494 -5.64506 -1.05162 30.19300 -0.00000 -0.00000 0.00000 -106.53200 -43.44910 -110.61400 -18.35390 30.11410 -76.86990 5.55594 9.67997 -0.87718 3.25081 0.44612 2.46824 71.48030 -11.91450 100.19300 10.08770 18.52660 83.96300 -5.55712 9.68432 0.87760 9.14393 -14.21190 0.87990 6.13173 18.08200 -20.70290 -13.77820 -3.54869 0.50402 0.59725 -7.64211 -2.41047 -9.14723 4.02250 1.68746 -8.70090 21.84530 22.38940 9.29126 -29.24760 1.51737 6.76946 7.33627 -2.21044 
20.10870 97.44580 15.60270 -3.74575 -3.46906 -49.01510 2.67125 4.38926 3.53003 4.32205 8.96900 6.84613 -5.82628 -1.01012 30.06410 -0.00000 -0.00000 0.00000 -105.42000 -43.64180 -110.97500 -17.70940 28.69740 -76.50840 5.55594 9.67997 -0.87718 2.20697 0.39496 2.27525 71.18750 -11.83460 101.59300 9.20325 16.58000 83.49700 -5.55712 9.68432 0.87760 8.98773 -14.23760 0.73725 6.05686 17.51180 -19.99150 -13.66340 -3.51654 0.50349 0.60354 -7.00771 -2.47502 -9.85867 3.74239 1.48904 -6.78198 21.33070 17.19720 10.76410 -27.87470 1.67809 5.69549 6.50127 -1.30573 
20.36210 97.70050 16.07670 -3.47845 -3.00568 -49.24000 2.69483 4.28817 3.70189 4.39769 8.77441 7.17598 -5.92639 -1.05758 29.88040 -0.00000 -0.00000 0.00000 -104.44200 -43.77340 -111.39700 -17.13800 27.38240 -76.13090 5.55594 9.67997 -0.87718 1.29920 0.35350 2.10956 70.99200 -11.85010 102.85000 8.43792 14.89060 83.02810 -5.55712 9.68432 0.87760 8.89142 -14.26230 0.62240 5.93338 16.84600 -19.44720 -13.51880 -3.49360 0.50076 0.57325 -6.28517 -2.32689 -10.60670 3.38709 0.99558 -4.54282 21.26720 11.22380 11.13800 -26.47190 1.60874 4.39499 5.39306 -0.30131 
20.57260 97.92720 16.48600 -3.20947 -2.58037 -49.40180 2.71562 4.19572 3.87557 4.43585 8.59845 7.51753 -5.98506 -1.15015 29.68590 -0.00000 -0.00000 0.00000 -103.63000 -43.81800 -111.88400 -16.63400 26.20260 -75.76960 5.55594 9.67997 -0.87718 0.49940 0.31975 1.97567 70.85400 -11.87650 103.95700 7.77253 13.41050 82.56560 -5.55712 9.68432 0.87760 8.82729 -14.29270 0.58828 5.78905 16.18890 -19.10050 -13.29490 -3.56120 0.48501 0.50683 -5.46101 -1.99317 -11.34490 3.01066 0.14274 -2.32431 21.70030 5.63122 10.67030 -25.63810 1.44990 3.74544 4.90415 0.31472 
20.74910 98.12290 16.84320 -2.96472 -2.22099 -49.55360 2.72085 4.12746 4.04641 4.44383 8.46906 7.86093 -6.03713 -1.23634 29.53840 -0.00000 -0.00000 0.00000 -102.97800 -43.79560 -112.39900 -16.18350 25.16250 -75.45620 5.55594 9.67997 -0.87718 -0.23181 0.29206 1.88936 70.62910 -11.82710 104.92300 7.12088 11.95890 82.08920 -5.55712 9.68432 0.87760 8.76331 -14.29510 0.61285 5.67240 15.58530 -18.87320 -13.10000 -3.72161 0.46049 0.43399 -4.60029 -1.65249 -11.99220 2.66286 -0.99560 -0.46735 22.65000 1.39294 9.84747 -25.44570 1.29829 3.97685 5.26111 0.36046 
20.89530 98.29080 17.15210 -2.77957 -1.95543 -49.73960 2.71172 4.09126 4.21409 4.42964 8.40146 8.20077 -6.09042 -1.27469 29.47750 -0.00000 -0.00000 0.00000 -102.44000 -43.74000 -112.87000 -15.77890 24.25420 -75.21130 5.55594 9.67997 -0.87718 -0.88140 0.27033 1.86685 70.09360 -11.67010 105.75600 6.37674 10.31720 81.54530 -5.55712 9.68432 0.87760 8.68830 -14.20910 0.64780 5.60409 15.03230 -18.64900 -13.00960 -3.89543 0.43856 0.38703 -3.86729 -1.46028 -12.49400 2.37995 -2.18308 0.85933 24.06750 -1.15329 8.92923 -25.30950 1.13888 4.44294 5.75796 0.12877 
21.01080 98.42340 17.40600 -2.67828 -1.80377 -49.97320 2.68700 4.08820 4.37187 4.39839 8.39711 8.53800 -6.14952 -1.24905 29.49960 -0.00000 -0.00000 0.00000 -101.93900 -43.67060 -113.21500 -15.41440 23.45020 -75.03110 5.55594 9.67997 -0.87718 -1.39932 0.25488 1.90260 69.05110 -11.43400 106.45900 5.47460 8.34524 80.85620 -5.55712 9.68432 0.87760 8.61154 -14.02520 0.67073 5.56691 14.57620 -18.37890 -12.95920 -4.00619 0.42496 0.37604 -3.44436 -1.43654 -12.85760 2.17401 -3.10751 1.73422 25.85320 -2.32057 7.88819 -24.51530 0.91832 4.33293 5.54202 0.04071 
21.09400 98.51790 17.61230 -2.65530 -1.77059 -50.24820 2.62898 4.11075 4.52442 4.34724 8.43910 8.86560 -6.22187 -1.15956 29.56010 -0.00000 -0.00000 0.00000 -101.40000 -43.59650 -113.36500 -15.08120 22.71110 -74.88560 5.55594 9.67997 -0.87718 -1.77161 0.24463 1.96581 67.46170 -11.17390 107.03000 4.41603 6.04623 79.96340 -5.55712 9.68432 0.87760 8.52958 -13.76300 0.68609 5.53573 14.25850 -18.07600 -12.82890 -4.05136 0.41593 0.38539 -3.33682 -1.49200 -13.13740 2.09925 -3.56461 2.36415 27.76090 -2.72782 6.76511 -22.70430 0.64479 3.35204 4.34002 0.29626 
21.14440 98.57300 17.78000 -2.67539 -1.84556 -50.52690 2.52712 4.14221 4.66501 4.26632 8.49244 9.15822 -6.29560 -0.99791 29.61030 -0.00000 -0.00000 0.00000 -100.73300 -43.53720 -113.27100 -14.75910 21.98350 -74.73220 5.55594 9.67997 -0.87718 -2.05279 0.23689 2.02443 65.45280 -10.92610 107.46200 3.23926 3.52254 78.86600 -5.55712 9.68432 0.87760 8.41982 -13.48250 0.69566 5.50098 14.11650 -17.78780 -12.56890 -4.09896 0.40266 0.39450 -3.37634 -1.53517 -13.38750 2.20887 -3.57932 2.90139 29.53140 -2.94627 5.90790 -20.12130 0.40520 1.84404 2.58554 0.83703 
21.16240 98.59220 17.91520 -2.69430 -2.00332 -50.76040 2.38491 4.16169 4.77955 4.14770 8.51493 9.38393 -6.33960 -0.74975 29.63720 -0.00000 -0.00000 0.00000 -99.84320 -43.51560 -112.90400 -14.42250 21.21440 -74.53710 5.55594 9.67997 -0.87718 -2.28997 0.23001 2.06813 63.20010 -10.69170 107.74400 1.98944 0.90580 77.61200 -5.55712 9.68432 0.87760 8.26420 -13.24460 0.68446 5.45772 14.14240 -17.54390 -12.23220 -4.18609 0.38322 0.39647 -3.43480 -1.54089 -13.64510 2.52671 -3.33020 3.39543 30.96030 -3.31252 5.79266 -17.45630 0.26958 0.47870 1.06822 1.45980 
21.14890 98.58030 18.01620 -2.67656 -2.20205 -50.90960 2.21590 4.15191 4.85765 3.99526 8.47288 9.52231 -6.33231 -0.41964 29.66660 -0.00000 -0.00000 0.00000 -98.72140 -43.53310 -112.29700 -14.07050 20.40870 -74.29580 5.55594 9.67997 -0.87718 -2.46396 0.22493 2.10432 60.86090 -10.45130 107.87100 0.73176 -1.64221 76.27910 -5.55712 9.68432 0.87760 8.07412 -13.09990 0.62405 5.39275 14.29540 -17.33550 -11.91200 -4.27069 0.36505 0.39987 -3.57071 -1.54840 -13.92780 3.03718 -2.98267 3.88094 31.89680 -3.98458 6.64835 -15.37300 0.23342 -0.27721 0.27663 1.89937 
